{"title":"The Xpose (2014) DVDScr Rip - XviD - [1CD]{VikkyMaxx}[SilverRG]","uid":10165382,"size":740723267,"categoryP":"video","categoryS":"movies","magnet":"?xt=urn:btih:7b1cc0af112173aafaa752bcbf03b8b653506d21&amp;dn=The+Xpose+%282014%29+DVDScr+Rip+-+XviD+-+%5B1CD%5D%7BVikkyMaxx%7D%5BSilverRG%5D&amp;tr=udp%3A%2F%2Ftracker.openbittorrent.com%3A80&amp;tr=udp%3A%2F%2Fopen.demonii.com%3A1337&amp;tr=udp%3A%2F%2Ftracker.coppersurfer.tk%3A6969&amp;tr=udp%3A%2F%2Fexodus.desync.com%3A6969","seeders":1,"leechers":0,"uploader":"shailendramaxx","files":27,"time":1400339616,"description":"VikkyMAxx SilverRG Presents:-\n\n\nGeneral:-\n \nComplete name :The Xpose (2014) DVDScr Rip - XviD - [1CD]{VikkyMaxx}[SilverRG]\nFormat : AVI \nFormat/Info : Audio Video Interleave \nFile size : 692 MiB \nDuration : 1h 51mn \nOverall bit rate : 864 Kbps \n\nVideo:-\n \nID : 0 \nFormat : MPEG-4 Visual \nFormat profile : Advanced Simple@L5 \nFormat settings, BVOP : 2 \nFormat settings, QPel : No \nFormat settings, GMC : No warppoints \nFormat settings, Matrix : Default (H.263) \nCodec ID : XVID \nCodec ID/Hint : XviD \nDuration : 1h 51mn \nBit rate : 777 Kbps \nWidth : 640 pixels \nHeight : 272 pixels \nDisplay aspect ratio : 2.35:1 \nFrame rate : 29.970 fps \nColor space : YUV \nChroma subsampling : 4:2:0 \nBit depth : 8 bits \nScan type : Progressive \nCompression mode : Lossy \nBits/(Pixel*Frame) : 0.149 \nStream size : 622 MiB (90%) \nWriting library : XviD 1.2.1 (UTC 2008-12-04) \n\nAudio:-\n \nID : 1 \nFormat : MPEG Audio \nFormat version : Version 1 \nFormat profile : Layer 3 \nMode : Joint stereo \nMode extension : MS Stereo \nCodec ID : 55 \nCodec ID/Hint : MP3 \nDuration : 1h 51mn \nBit rate mode : Constant \nBit rate : 80.0 Kbps \nChannel(s) : 2 channels \nSampling rate : 32.0 KHz \nCompression mode : Lossy \nStream size : 64.1 MiB (9%) \nAlignment : Aligned on interleaves \nInterleave, duration : 133 ms (4.00 video frames) \nInterleave, preload duration : 216 ms \nTitle : VTS_01_1 T80 2_0ch 192Kbps DELAY 0ms \nWriting library : LAME3.99r \nEncoding settings : -m j -V 4 -q 2 -lowpass 13.5 -b 80 \nLanguage: Hindi\n\n\nSCREENS:-\n\n &lt;a href=&quot;\nhttp://i.imgur.com/KfZuJMS.png&quot; rel=&quot;nofollow&quot; target=&quot;_NEW&quot;&gt;\nhttp://i.imgur.com/KfZuJMS.png&lt;/a&gt;\n &lt;a href=&quot;\nhttp://i.imgur.com/xbowuor.png&quot; rel=&quot;nofollow&quot; target=&quot;_NEW&quot;&gt;\nhttp://i.imgur.com/xbowuor.png&lt;/a&gt;\n &lt;a href=&quot;\nhttp://i.imgur.com/XQ0BmLf.png&quot; rel=&quot;nofollow&quot; target=&quot;_NEW&quot;&gt;\nhttp://i.imgur.com/XQ0BmLf.png&lt;/a&gt;\n &lt;a href=&quot;\nhttp://i.imgur.com/AEZbwpj.png&quot; rel=&quot;nofollow&quot; target=&quot;_NEW&quot;&gt;\nhttp://i.imgur.com/AEZbwpj.png&lt;/a&gt;\n &lt;a href=&quot;\nhttp://i.imgur.com/w059SB5.png&quot; rel=&quot;nofollow&quot; target=&quot;_NEW&quot;&gt;\nhttp://i.imgur.com/w059SB5.png&lt;/a&gt;\n &lt;a href=&quot;\nhttp://i.imgur.com/w059SB5.png&quot; rel=&quot;nofollow&quot; target=&quot;_NEW&quot;&gt;\nhttp://i.imgur.com/w059SB5.png&lt;/a&gt;\n &lt;a href=&quot;\nhttp://i.imgur.com/lBcBXt7.png&quot; rel=&quot;nofollow&quot; target=&quot;_NEW&quot;&gt;\nhttp://i.imgur.com/lBcBXt7.png&lt;/a&gt;\n &lt;a href=&quot;\nhttp://i.imgur.com/FAtEPdF.png&quot; rel=&quot;nofollow&quot; target=&quot;_NEW&quot;&gt;\nhttp://i.imgur.com/FAtEPdF.png&lt;/a&gt;\n &lt;a href=&quot;\nhttp://i.imgur.com/fQFhBc0.png&quot; rel=&quot;nofollow&quot; target=&quot;_NEW&quot;&gt;\nhttp://i.imgur.com/fQFhBc0.png&lt;/a&gt;\n &lt;a href=&quot;\nhttp://i.imgur.com/Mua5i3F.png&quot; rel=&quot;nofollow&quot; target=&quot;_NEW&quot;&gt;\nhttp://i.imgur.com/Mua5i3F.png&lt;/a&gt;\n &lt;a href=&quot;\nhttp://i.imgur.com/aLMy8HU.png&quot; rel=&quot;nofollow&quot; target=&quot;_NEW&quot;&gt;\nhttp://i.imgur.com/aLMy8HU.png&lt;/a&gt;\n &lt;a href=&quot;\nhttp://i.imgur.com/ezxLiZg.png&quot; rel=&quot;nofollow&quot; target=&quot;_NEW&quot;&gt;\nhttp://i.imgur.com/ezxLiZg.png&lt;/a&gt;\n\n\n\nSAMPLE AND SCREENSHOTS INCLUDED\n\n    \n             \n             ********** PLEASE SEED AS LONG AS YOU CAN AFTER DOWNLOAD **********\n       \n                    ***** THANK YOU REGARDS - VIKKYMAXX (SilverRG) *****\n\n","torrent":{"xt":"urn:btih:7b1cc0af112173aafaa752bcbf03b8b653506d21","amp;dn":"The+Xpose+%282014%29+DVDScr+Rip+-+XviD+-+%5B1CD%5D%7BVikkyMaxx%7D%5BSilverRG%5D","amp;tr":["udp%3A%2F%2Ftracker.openbittorrent.com%3A80","udp%3A%2F%2Fopen.demonii.com%3A1337","udp%3A%2F%2Ftracker.coppersurfer.tk%3A6969","udp%3A%2F%2Fexodus.desync.com%3A6969"],"infoHash":"7b1cc0af112173aafaa752bcbf03b8b653506d21","infoHashBuffer":{"type":"Buffer","data":[123,28,192,175,17,33,115,170,250,167,82,188,191,3,184,182,83,80,109,33]},"announce":[],"urlList":[]}}